<svg width="512" height="512" viewBox="0 0 512 512" fill="none" xmlns="http://www.w3.org/2000/svg">
<path d="M358.86 117.362C312.619 54.9875 265.715 4.52404 265.243 4.02221C262.852 1.45745 259.505 0 255.999 0C252.493 0 249.144 1.45619 246.754 4.02221C246.285 4.52404 199.38 54.9875 153.138 117.362C89.9726 202.563 57.9453 268.702 57.9453 313.938C57.9453 423.147 146.792 512 255.999 512C365.208 512 454.055 423.15 454.055 313.938C454.055 268.702 422.026 202.564 358.86 117.362ZM275.779 447.906C265.398 450.36 254.695 451.605 243.973 451.605C167.758 451.605 105.753 389.597 105.753 313.381C105.753 302.874 108.988 283.836 124.398 252.815C125.946 249.697 129.512 248.15 132.85 249.139C136.186 250.132 138.324 253.383 137.915 256.839C137.562 259.823 137.383 262.633 137.383 265.19C137.383 346.885 195.487 417.85 275.542 433.921C278.837 434.584 281.23 437.454 281.287 440.816C281.346 444.182 279.053 447.131 275.779 447.906Z" fill="url(#paint0_linear_341_622)"/>
<defs>
<linearGradient id="paint0_linear_341_622" x1="256" y1="0" x2="256" y2="512" gradientUnits="userSpaceOnUse">
<stop stop-color="#0091FF"/>
<stop offset="1" stop-color="#033FC0"/>
</linearGradient>
</defs>
</svg>
